<svg width="20" height="20" viewBox="0 0 20 20" fill="none" xmlns="http://www.w3.org/2000/svg">
<path d="M14.9 10.9833H14.9042C14.9042 10.9833 13.3333 13.2875 12.0125 15C10.8708 16.4792 10.5375 17.7458 10.4417 18.3583C10.4042 18.5833 10.2208 18.75 10 18.75C9.77916 18.75 9.59583 18.5833 9.55833 18.3583C9.4625 17.7458 9.12916 16.4792 7.9875 15C7.8125 14.7708 7.63333 14.5333 7.45416 14.2917L11.7667 9.16665L15.2375 5.04999C15.6208 5.85415 15.8333 6.75415 15.8333 7.70832C15.8333 8.91665 15.4875 10.0375 14.9 10.9833Z" fill="#48B564"/>
<path d="M11.7667 9.16667L7.45416 14.2917C6.27916 12.7167 5.09583 10.9833 5.09583 10.9833H5.1C4.975 10.7833 4.8625 10.5792 4.76666 10.3667L8.23333 6.25C7.90416 6.64583 7.70833 7.15417 7.70833 7.70833C7.70833 8.975 8.73333 10 10 10C10.7125 10 11.35 9.675 11.7667 9.16667Z" fill="#FCC60E"/>
<path d="M11.8333 1.97499L8.26251 6.21666L5.52917 3.83332C6.59584 2.50832 8.20417 1.66666 10 1.66666C10.6417 1.66666 11.2583 1.77499 11.8333 1.97499Z" fill="#2C85EB"/>
<path d="M8.26249 6.21668L8.23332 6.25001L4.76666 10.3667C4.38332 9.56251 4.16666 8.66251 4.16666 7.70834C4.16666 6.23334 4.67916 4.87918 5.52916 3.83334L8.26249 6.21668Z" fill="#ED5748"/>
<path d="M11.7667 9.16667C12.0958 8.77084 12.2917 8.26251 12.2917 7.70834C12.2917 6.44167 11.2667 5.41667 10 5.41667C9.2875 5.41667 8.65 5.74167 8.23334 6.25001L11.8333 1.97501C13.3292 2.48334 14.5542 3.60417 15.2375 5.05001L11.7667 9.16667Z" fill="#5695F6"/>
</svg>
